<svg xmlns="http://www.w3.org/2000/svg" width="594.272" height="646.591" viewBox="0 0 594.272 646.591"><defs><style>.a,.b,.c,.d{fill:#1d7dd4;}.a{opacity:0.2;}.b{opacity:0.5;}.c{opacity:0.6;}</style></defs><path class="a" d="M101.706,0h270.5A101.706,101.706,0,0,1,473.915,101.706v207.44A101.706,101.706,0,0,1,372.209,410.851h-270.5A101.706,101.706,0,0,1,0,309.145V101.706A101.706,101.706,0,0,1,101.706,0Z" transform="translate(107.981 0)"/><path class="b" d="M115.638.024,353.211,4.23C418.216,5.381,471.847,48.428,473,100.378l4.947,223.274c1.151,51.95-50.613,93.131-115.619,91.98l-237.573-4.207c-65.006-1.151-118.636-44.2-119.787-96.148L.019,92C-1.132,40.054,50.632-1.127,115.638.024Z" transform="matrix(0.996, -0.087, 0.087, 0.996, 75.046, 72.084)"/><path class="c" d="M112.07.128,347.917,9.981c64.533,2.7,119.033,47.378,121.729,99.8l11.587,225.3c2.7,52.423-47.433,92.734-111.966,90.038L133.42,415.271c-64.533-2.7-119.033-47.378-121.729-99.8L.1,90.166C-2.592,37.743,47.537-2.568,112.07.128Z" transform="translate(35.039 155.781) rotate(-12)"/><path class="d" d="M109.879.215l234.26,12.837c64.1,3.512,118.909,49.209,122.422,102.066l15.1,227.17c3.512,52.857-45.6,92.858-109.7,89.346L137.695,418.8C73.6,415.284,18.786,369.587,15.273,316.731L.177,89.56C-3.335,36.7,45.78-3.3,109.879.215Z" transform="translate(0 231.472) rotate(-16)"/></svg>