<svg xmlns="http://www.w3.org/2000/svg" xmlns:xlink="http://www.w3.org/1999/xlink" width="66.333" height="70.505" viewBox="0 0 66.333 70.505"><defs><style>.a{fill:#fff;stroke:rgba(0,0,0,0);}.b{filter:url(#a);}</style><filter id="a" x="0" y="0" width="66.333" height="70.505" filterUnits="userSpaceOnUse"><feOffset dy="2" input="SourceAlpha"/><feGaussianBlur stdDeviation="5.5" result="b"/><feFlood flood-opacity="0.161"/><feComposite operator="in" in2="b"/><feComposite in="SourceGraphic"/></filter></defs><g transform="translate(-275 147)"><g transform="translate(292 -132)"><g class="b" transform="matrix(1, 0, 0, 1, -17, -15)"><path class="a" d="M318.435-113.739l3.319-3.3a8.735,8.735,0,0,0,0-12.394,8.877,8.877,0,0,0-12.477,0l-1.209,1.2A8.817,8.817,0,0,0,300.817-132,8.79,8.79,0,0,0,292-123.241v18.988a8.79,8.79,0,0,0,8.817,8.759,8.817,8.817,0,0,0,7.251-3.771l1.209,1.2a8.878,8.878,0,0,0,12.477,0,8.735,8.735,0,0,0,0-12.394l-3.319-3.28" transform="translate(-275 147)"/></g></g></g></svg>