<svg xmlns="http://www.w3.org/2000/svg" xmlns:xlink="http://www.w3.org/1999/xlink" width="75" height="75" viewBox="0 0 75 75"><defs><style>.a{fill:#fff;}.b{filter:url(#a);}</style><filter id="a" x="0" y="0" width="75" height="75" filterUnits="userSpaceOnUse"><feOffset dy="2" input="SourceAlpha"/><feGaussianBlur stdDeviation="5.5" result="b"/><feFlood flood-opacity="0.161"/><feComposite operator="in" in2="b"/><feComposite in="SourceGraphic"/></filter></defs><g transform="translate(16.5 14.5)"><g class="b" transform="matrix(1, 0, 0, 1, -16.5, -14.5)"><path class="a" d="M23.6,42a1.271,1.271,0,0,1-1.241-1.315V36.744A1.27,1.27,0,0,1,23.6,35.5a1.251,1.251,0,0,1,1.3,1.233v4.016A1.251,1.251,0,0,1,23.677,42Zm-5.25,0a1.27,1.27,0,0,1-1.241-1.315V36.744a1.27,1.27,0,0,1,1.241-1.24,1.241,1.241,0,0,1,.908.352,1.266,1.266,0,0,1,.393.881v4.016a1.274,1.274,0,0,1-.393.893,1.314,1.314,0,0,1-.878.351ZM13.1,42a1.271,1.271,0,0,1-1.242-1.315V36.744A1.272,1.272,0,0,1,13.1,35.5a1.243,1.243,0,0,1,.908.352,1.263,1.263,0,0,1,.394.881v4.016a1.272,1.272,0,0,1-.394.893A1.286,1.286,0,0,1,13.13,42Zm.034-8.366A4.8,4.8,0,0,1,8.36,28.85V13.072a4.8,4.8,0,0,1,4.77-4.78H28.876a4.8,4.8,0,0,1,4.774,4.777v15.78a4.8,4.8,0,0,1-4.772,4.782Zm-.006-12.669A7.875,7.875,0,1,0,21,13.069,7.892,7.892,0,0,0,13.127,20.961ZM5.253,30.124H1.324a1.275,1.275,0,0,1-.006-2.549H5.323a1.275,1.275,0,0,1-.011,2.55Zm0-5.26H1.243a1.275,1.275,0,0,1-.849-2.2,1.251,1.251,0,0,1,.908-.353H5.323a1.272,1.272,0,0,1,1.242,1.3,1.3,1.3,0,0,1-1.307,1.245Zm31.356,0a1.275,1.275,0,0,1,.058-2.548l.06,0h.012l4.019,0a1.275,1.275,0,0,1,.847,2.2,1.241,1.241,0,0,1-.918.351H36.729l-.055,0ZM5.253,19.6H1.324a1.274,1.274,0,0,1,0-2.548h4a1.275,1.275,0,0,1-.007,2.55Zm35.434,0H36.761a1.274,1.274,0,0,1-.005-2.548h4A1.275,1.275,0,0,1,42,18.359a1.261,1.261,0,0,1-.394.891,1.278,1.278,0,0,1-.9.353Zm0-5.26H36.761a1.275,1.275,0,0,1-.005-2.549h4a1.275,1.275,0,0,1-.031,2.549ZM23.568,6.534a1.28,1.28,0,0,1-1.211-1.355V1.188a1.272,1.272,0,0,1,2.541.046V5.2c0,.041,0,.083,0,.122a1.28,1.28,0,0,1-1.273,1.215ZM18.348,6.5a1.279,1.279,0,0,1-1.241-1.316V1.241A1.272,1.272,0,0,1,18.348,0a1.3,1.3,0,0,1,.908.353,1.269,1.269,0,0,1,.393.881V5.25A1.275,1.275,0,0,1,18.4,6.5Zm10.5,0a1.274,1.274,0,0,1-1.241-1.316V1.241A1.272,1.272,0,0,1,28.847,0a1.3,1.3,0,0,1,.908.353,1.266,1.266,0,0,1,.394.881V5.25A1.276,1.276,0,0,1,28.878,6.5Z" transform="translate(16.5 14.5)"/></g></g></svg>