<svg xmlns="http://www.w3.org/2000/svg" xmlns:xlink="http://www.w3.org/1999/xlink" width="71" height="71" viewBox="0 0 71 71"><defs><style>.a{fill:#fff;}.b{filter:url(#a);}</style><filter id="a" x="0" y="0" width="71" height="71" filterUnits="userSpaceOnUse"><feOffset dy="2" input="SourceAlpha"/><feGaussianBlur stdDeviation="5.5" result="b"/><feFlood flood-opacity="0.161"/><feComposite operator="in" in2="b"/><feComposite in="SourceGraphic"/></filter></defs><g transform="translate(-18.5 -7.5)"><g class="b" transform="matrix(1, 0, 0, 1, 18.5, 7.5)"><path class="a" d="M47.349,254.747a19,19,0,1,0,19,19A19.022,19.022,0,0,0,47.349,254.747Zm-1.18,6.261a1.18,1.18,0,0,1,2.359,0v1.281a1.18,1.18,0,0,1-2.359,0ZM35.891,274.927H34.61a1.18,1.18,0,1,1,0-2.359h1.281a1.18,1.18,0,1,1,0,2.359Zm12.638,11.559a1.18,1.18,0,0,1-2.359,0V285.2a1.18,1.18,0,0,1,2.359,0Zm7.48-19.375-4.627,4.6a4.516,4.516,0,0,1-6.076,6.072l-4.951,4.951a1.18,1.18,0,0,1-1.668-1.669l4.864-4.864a4.518,4.518,0,0,1,6.251-6.246l4.544-4.513a1.18,1.18,0,1,1,1.662,1.674Zm4.079,7.815H58.807a1.18,1.18,0,1,1,0-2.359h1.281a1.18,1.18,0,1,1,0,2.359Z" transform="translate(-11.85 -240.25)"/></g></g></svg>