<svg xmlns="http://www.w3.org/2000/svg" xmlns:xlink="http://www.w3.org/1999/xlink" width="58.326" height="73" viewBox="0 0 58.326 73"><defs><style>.a{fill:#fff;}.b{fill:#1873cd;}.c{filter:url(#e);}</style><filter id="a" x="17.35" y="2.954" width="42.842" height="74.986" filterUnits="userSpaceOnUse"><feOffset dy="2" input="SourceAlpha"/><feGaussianBlur stdDeviation="5.5" result="b"/><feFlood flood-opacity="0.161"/><feComposite operator="in" in2="b"/><feComposite in="SourceGraphic"/></filter><filter id="c" x="-0.655" y="2.3" width="41.397" height="75.408" filterUnits="userSpaceOnUse"><feOffset dy="2" input="SourceAlpha"/><feGaussianBlur stdDeviation="5.5" result="d"/><feFlood flood-opacity="0.161"/><feComposite operator="in" in2="d"/><feComposite in="SourceGraphic"/></filter><filter id="e" x="0" y="0" width="58.326" height="73" filterUnits="userSpaceOnUse"><feOffset dy="2" input="SourceAlpha"/><feGaussianBlur stdDeviation="5.5" result="f"/><feFlood flood-opacity="0.161"/><feComposite operator="in" in2="f"/><feComposite in="SourceGraphic"/></filter></defs><g transform="translate(17.5 14.5)"><g class="c" transform="matrix(1, 0, 0, 1, -17.5, -14.5)"><path class="a" d="M445.663-105.13a1.357,1.357,0,0,1-1.4-1.307v-9.991a9.067,9.067,0,0,0,1.736.167,9.132,9.132,0,0,0,1.063-.062v9.886A1.357,1.357,0,0,1,445.663-105.13Zm8.465-2.955H450.35v-9.3A9.01,9.01,0,0,0,455-125.26a9.01,9.01,0,0,0-4.649-7.88v-9.035h3.777a4.2,4.2,0,0,1,4.2,4.2v25.694A4.2,4.2,0,0,1,454.127-108.085Zm-13.386,0H437.2a4.2,4.2,0,0,1-4.2-4.2v-25.694a4.2,4.2,0,0,1,4.2-4.2h3.543v2.332h-1.678l.066.234a2.376,2.376,0,0,0,1.612,1.76v2.383a4.678,4.678,0,0,1-2.484-1.211,4.681,4.681,0,0,1-1.382-2.429l-.145-.662a1.87,1.87,0,0,0-1.4,1.792v25.694a1.868,1.868,0,0,0,1.867,1.866h3.543v2.332Zm3.522-26.008h0v-9.73a1.357,1.357,0,0,1,1.4-1.306,1.357,1.357,0,0,1,1.4,1.306v9.626A9.13,9.13,0,0,0,446-134.26a9.069,9.069,0,0,0-1.735.167Z" transform="translate(-416.5 159.63)"/></g><circle class="a" cx="7" cy="7" r="7" transform="translate(5 12.87)"/><path class="b" d="M2.994-17.647v-.559h.749v.559Zm-1.5.558v-.558H.748v-.559H0V-21H1.5v2.791h.749v.559h.748v.558Zm2.246-1.116V-21h.749v2.791Zm1.5,1.116v-.558H8.988v.558Zm3.743-.558v-1.117h.749v1.117ZM5.994-18.764v-.558H5.246v-1.117h.748V-21H9.737v.558H6.743v1.117H8.988v.558Z" transform="translate(7.244 39.331)"/></g></svg>