<svg xmlns="http://www.w3.org/2000/svg" width="140.302" height="42" viewBox="0 0 140.302 42"><defs><style>.a{fill:#03a9f4;}.b{fill:#242b2e;}.c{fill:#1976d2;}.d{fill:#263238;}</style></defs><path class="a" d="M26.687,28.624V0L13.23,13.467V42Z" transform="translate(0.237)"/><path class="b" d="M13.467,0,0,13.467H13.467V0Z"/><path class="a" d="M26.687,0,13.23,13.467H34.138L47.606,0Z" transform="translate(0.237)"/><path class="c" d="M26.687,14.523,13.23,27.9V13.23H26.687Z" transform="translate(0.237 0.237)"/><path class="b" d="M50.542,14.96H40.79v2.107H44.3v9.385h2.687V17.067h3.553Z" transform="translate(0.732 0.268)"/><path class="b" d="M60.246,21.719V19.673H54.617V17.016h6.23V14.97H51.94V26.452h9.1V24.406H54.617V21.719Z" transform="translate(0.932 0.268)"/><path class="b" d="M62.32,20.684A5.843,5.843,0,0,0,68.1,26.619h.3a6.912,6.912,0,0,0,4.652-2.036l-1.537-1.629a4.509,4.509,0,0,1-2.942,1.323A3.461,3.461,0,0,1,65.048,20.8v-.143a3.43,3.43,0,0,1,3.339-3.614h.153a4.133,4.133,0,0,1,2.942,1.395l1.527-1.8a6.688,6.688,0,0,0-4.54-1.842,5.853,5.853,0,0,0-6.108,5.548A1.7,1.7,0,0,0,62.32,20.684Z" transform="translate(1.118 0.265)"/><path class="b" d="M85.1,26.452V14.97H82.409v4.856H77.217V14.97H74.53V26.452h2.687V21.872h5.191v4.581Z" transform="translate(1.337 0.268)"/><path class="d" d="M94.857,15.96,94.3,17.2a5.985,5.985,0,0,0-3.2-1.018c-1.486,0-2.463.56-2.463,1.537,0,2.983,6.525,1.425,6.5,5.629,0,1.934-1.71,3.176-4.194,3.176a6.617,6.617,0,0,1-4.438-1.771l.6-1.191a5.772,5.772,0,0,0,3.858,1.619c1.669,0,2.718-.682,2.718-1.792,0-3.054-6.5-1.425-6.5-5.578,0-1.822,1.608-3,4.011-3a6.861,6.861,0,0,1,3.665,1.15Z" transform="translate(1.552 0.266)"/><path class="d" d="M102.017,14.93c2.871,0,4.52,1.425,4.52,3.889s-1.659,4.072-4.52,4.072H98.963v3.665H97.64V14.93Zm-3.054,6.657h2.983c2.087,0,3.3-.926,3.3-2.728s-1.211-2.647-3.3-2.647H99.024Z" transform="translate(1.751 0.268)"/><path class="d" d="M109.843,16.2V20.01h5.69v1.272h-5.69v3.98h6.576v1.262H108.55V14.93h7.665V16.2Z" transform="translate(1.947 0.268)"/><path class="d" d="M128.352,16.579l-.794,1.018a4.876,4.876,0,0,0-3.451-1.456,4.581,4.581,0,1,0,0,9.161,5.09,5.09,0,0,0,3.471-1.415l.814.906a6.4,6.4,0,0,1-4.285,1.822,5.853,5.853,0,1,1-.489-11.7h.489A6.271,6.271,0,0,1,128.352,16.579Z" transform="translate(2.117 0.268)"/><path class="d" d="M137.677,15.96l-.54,1.242a5.985,5.985,0,0,0-3.2-1.018c-1.486,0-2.463.56-2.463,1.537,0,2.983,6.525,1.425,6.5,5.629,0,1.934-1.71,3.176-4.194,3.176a6.617,6.617,0,0,1-4.438-1.771l.6-1.191a5.772,5.772,0,0,0,3.838,1.619c1.669,0,2.718-.682,2.718-1.792,0-3.054-6.5-1.425-6.5-5.578,0-1.822,1.608-3,4.011-3a6.861,6.861,0,0,1,3.665,1.15Z" transform="translate(2.32 0.266)"/></svg>